# xmcd
#
# Track frame offsets:
#	150
#	8744
#	22157
#	32164
#	43259
#	56380
#	68848
#	77349
#	88959
#	102169
#	114207
#	126377
#	138592
#	151776
#	162384
#
# Disc length: 2339 seconds
#
# Revision: 1
# Processed by: cddbd v1.5.2PL0 Copyright (c) Steve Scherf et al.
# Submitted via: audiograbber 1.83.01
#
DISCID=c009210f
DTITLE=Dean Martin and Bing Crosby - Let it Snow, Let it Snow, Let it Snow
DYEAR=2012
DGENRE=Blues
TTITLE0=Let it Snow, Let it Snow, Let it Snow
TTITLE1=Silver Bells (Bing Crosby)
TTITLE2=Rudolf the Red-Nosed Reindeer (Dean Martin)
TTITLE3=White Christmas (Dean Martin)
TTITLE4=Merry Christmas in Hawaii (Andrews Sisters and Bing Crosby)
TTITLE5=How Lovely Is Christmas (Bing Crosby)
TTITLE6=Winter Wonderland (Dean Martin)
TTITLE7=Jingle Bells (Andrews Sisters and Bing Crosby)
TTITLE8=I'll Be Home for Christmas (Bing Crosby)
TTITLE9=Santa Claus Is Coming to Town (Andrews Sisters and Bing Crosby)
TTITLE10=It's Beginning to Look a Lot Like Christmas (Bing Crosby)
TTITLE11=I've Got My Love to Keep Me Warm (Dean Martin)
TTITLE12=A Winter Romance (Dean Martin)
TTITLE13=Baby, It's Cold Outside (Dean Martin)
TTITLE14=The Christmas Blues (Dean Martin)
EXTD=
EXTT0=
EXTT1=
EXTT2=
EXTT3=
EXTT4=
EXTT5=
EXTT6=
EXTT7=
EXTT8=
EXTT9=
EXTT10=
EXTT11=
EXTT12=
EXTT13=
EXTT14=
PLAYORDER=
